<svg id="visual" viewBox="0 0 900 450" width="900" height="450" xmlns="http://www.w3.org/2000/svg" xmlns:xlink="http://www.w3.org/1999/xlink" version="1.1"><rect x="0" y="0" width="900" height="450" fill="#fff"></rect><path d="M0 291L21.5 293C43 295 86 299 128.8 294.7C171.7 290.3 214.3 277.7 257.2 276.3C300 275 343 285 385.8 289.7C428.7 294.3 471.3 293.7 514.2 298.7C557 303.7 600 314.3 642.8 315.2C685.7 316 728.3 307 771.2 306.5C814 306 857 314 878.5 318L900 322L900 451L878.5 451C857 451 814 451 771.2 451C728.3 451 685.7 451 642.8 451C600 451 557 451 514.2 451C471.3 451 428.7 451 385.8 451C343 451 300 451 257.2 451C214.3 451 171.7 451 128.8 451C86 451 43 451 21.5 451L0 451Z" fill="#0ea7ff"></path><path d="M0 334L21.5 331C43 328 86 322 128.8 317.8C171.7 313.7 214.3 311.3 257.2 316.8C300 322.3 343 335.7 385.8 334.3C428.7 333 471.3 317 514.2 317C557 317 600 333 642.8 332.5C685.7 332 728.3 315 771.2 312.2C814 309.3 857 320.7 878.5 326.3L900 332L900 451L878.5 451C857 451 814 451 771.2 451C728.3 451 685.7 451 642.8 451C600 451 557 451 514.2 451C471.3 451 428.7 451 385.8 451C343 451 300 451 257.2 451C214.3 451 171.7 451 128.8 451C86 451 43 451 21.5 451L0 451Z" fill="#0ba2f9"></path><path d="M0 339L21.5 340.2C43 341.3 86 343.7 128.8 349.8C171.7 356 214.3 366 257.2 368.5C300 371 343 366 385.8 359.7C428.7 353.3 471.3 345.7 514.2 345.7C557 345.7 600 353.3 642.8 352.2C685.7 351 728.3 341 771.2 343C814 345 857 359 878.5 366L900 373L900 451L878.5 451C857 451 814 451 771.2 451C728.3 451 685.7 451 642.8 451C600 451 557 451 514.2 451C471.3 451 428.7 451 385.8 451C343 451 300 451 257.2 451C214.3 451 171.7 451 128.8 451C86 451 43 451 21.5 451L0 451Z" fill="#079df4"></path><path d="M0 399L21.5 397.7C43 396.3 86 393.7 128.8 391.8C171.7 390 214.3 389 257.2 386.8C300 384.7 343 381.3 385.8 377.8C428.7 374.3 471.3 370.7 514.2 369.3C557 368 600 369 642.8 375.5C685.7 382 728.3 394 771.2 396.3C814 398.7 857 391.3 878.5 387.7L900 384L900 451L878.5 451C857 451 814 451 771.2 451C728.3 451 685.7 451 642.8 451C600 451 557 451 514.2 451C471.3 451 428.7 451 385.8 451C343 451 300 451 257.2 451C214.3 451 171.7 451 128.8 451C86 451 43 451 21.5 451L0 451Z" fill="#0398ee"></path><path d="M0 425L21.5 425C43 425 86 425 128.8 425.8C171.7 426.7 214.3 428.3 257.2 424.3C300 420.3 343 410.7 385.8 408.2C428.7 405.7 471.3 410.3 514.2 411C557 411.7 600 408.3 642.8 405.8C685.7 403.3 728.3 401.7 771.2 400.2C814 398.7 857 397.3 878.5 396.7L900 396L900 451L878.5 451C857 451 814 451 771.2 451C728.3 451 685.7 451 642.8 451C600 451 557 451 514.2 451C471.3 451 428.7 451 385.8 451C343 451 300 451 257.2 451C214.3 451 171.7 451 128.8 451C86 451 43 451 21.5 451L0 451Z" fill="#0093e9"></path></svg>